<svg xmlns="http://www.w3.org/2000/svg" width="29.241" height="29.658" viewBox="0 0 29.241 29.658">
  <g id="Group_9833" data-name="Group 9833" transform="translate(0 0)">
    <path id="Path_6" data-name="Path 6" d="M161.423,136.693c3.9,0,4.365.015,5.907.086a8,8,0,0,1,2.715.511,4.523,4.523,0,0,1,1.681,1.109,4.627,4.627,0,0,1,1.094,1.706,8.337,8.337,0,0,1,.5,2.754c.07,1.563.085,2.031.085,5.99s-.015,4.429-.085,5.993a8.335,8.335,0,0,1-.5,2.752,4.614,4.614,0,0,1-1.094,1.706,4.523,4.523,0,0,1-1.681,1.109,8,8,0,0,1-2.715.511c-1.541.071-2,.086-5.907.086s-4.368-.015-5.909-.086a8,8,0,0,1-2.715-.511,4.524,4.524,0,0,1-1.681-1.109,4.615,4.615,0,0,1-1.094-1.706,8.3,8.3,0,0,1-.5-2.752c-.07-1.565-.085-2.033-.085-5.993s.015-4.427.085-5.99a8.3,8.3,0,0,1,.5-2.754,4.627,4.627,0,0,1,1.094-1.706,4.524,4.524,0,0,1,1.681-1.109,8,8,0,0,1,2.715-.511c1.541-.071,2-.086,5.909-.086m0-2.672c-3.971,0-4.469.018-6.029.089a10.646,10.646,0,0,0-3.549.69,7.155,7.155,0,0,0-2.589,1.711,7.276,7.276,0,0,0-1.687,2.626,11.046,11.046,0,0,0-.681,3.6c-.07,1.581-.088,2.086-.088,6.112s.018,4.533.088,6.114a11.019,11.019,0,0,0,.681,3.6,7.269,7.269,0,0,0,1.687,2.627,7.135,7.135,0,0,0,2.589,1.71,10.607,10.607,0,0,0,3.549.69c1.56.071,2.058.089,6.029.089s4.467-.018,6.028-.089A10.607,10.607,0,0,0,171,162.9a7.149,7.149,0,0,0,2.589-1.71,7.269,7.269,0,0,0,1.687-2.627,10.985,10.985,0,0,0,.679-3.6c.071-1.581.088-2.087.088-6.114s-.016-4.531-.088-6.112a11.011,11.011,0,0,0-.679-3.6,7.276,7.276,0,0,0-1.687-2.626A7.169,7.169,0,0,0,171,134.8a10.647,10.647,0,0,0-3.549-.69c-1.56-.071-2.058-.089-6.028-.089" transform="translate(-146.801 -134.021)" fill="#fff"/>
    <path id="Path_7" data-name="Path 7" d="M159.1,138.876a7.615,7.615,0,1,0,7.506,7.613,7.562,7.562,0,0,0-7.506-7.613m0,12.558a4.944,4.944,0,1,1,4.873-4.944,4.909,4.909,0,0,1-4.873,4.944" transform="translate(-144.474 -131.661)" fill="#fff"/>
    <path id="Path_8" data-name="Path 8" d="M164.22,139.255a1.755,1.755,0,1,1-1.755-1.779,1.766,1.766,0,0,1,1.755,1.779" transform="translate(-140.04 -132.342)" fill="#fff"/>
  </g>
</svg>
