<svg xmlns="http://www.w3.org/2000/svg" width="28.415" height="23.42" viewBox="0 0 28.415 23.42">
  <path id="Path_4" data-name="Path 4" d="M111.72,157.371a16.343,16.343,0,0,0,8.936,2.656c10.823,0,16.939-9.272,16.57-17.588a11.9,11.9,0,0,0,2.908-3.061,11.5,11.5,0,0,1-3.348.932,5.9,5.9,0,0,0,2.564-3.271,11.6,11.6,0,0,1-3.7,1.436,5.781,5.781,0,0,0-4.256-1.867,5.9,5.9,0,0,0-5.679,7.258,16.466,16.466,0,0,1-12.015-6.178,5.973,5.973,0,0,0,1.8,7.9,5.766,5.766,0,0,1-2.641-.74,5.9,5.9,0,0,0,4.675,5.872,5.749,5.749,0,0,1-2.632.1,5.845,5.845,0,0,0,5.445,4.106A11.594,11.594,0,0,1,111.72,157.371Z" transform="translate(-111.72 -136.607)" fill="#fff"/>
</svg>
