
<svg xmlns="http://www.w3.org/2000/svg" width="32.409" height="22.711" viewBox="0 0 32.409 22.711">
  <path id="Path_1" data-name="Path 1" d="M216.752,158.407a3.769,3.769,0,0,1-2.489-2.416c-1.077-2.962-1.4-15.353.678-17.795a4.022,4.022,0,0,1,2.708-1.439c5.589-.6,22.863-.516,24.852.2a3.894,3.894,0,0,1,2.445,2.351c1.178,3.061,1.219,14.2-.156,17.151a3.8,3.8,0,0,1-1.752,1.77C240.954,159.324,219.494,159.311,216.752,158.407Zm8.877-5.808,10.066-5.219c-3.378-1.763-6.708-3.5-10.066-5.252Z" transform="translate(-213.416 -136.358)" fill="#fff"/>
</svg>
