<svg id="whatsapp-121" xmlns="http://www.w3.org/2000/svg" width="32.369" height="32.525" viewBox="0 0 32.369 32.525">
  <g id="Group_1" data-name="Group 1" transform="translate(0 0)">
    <path id="Path_473" data-name="Path 473" d="M28.256,4.727A16.121,16.121,0,0,0,2.889,24.173L.6,32.525l8.544-2.241a16.1,16.1,0,0,0,7.7,1.962h.007a16.124,16.124,0,0,0,11.4-27.518ZM10.309,16.7a7.833,7.833,0,0,1-1.644-4.166,4.516,4.516,0,0,1,1.409-3.359,1.48,1.48,0,0,1,1.074-.5c.269,0,.537,0,.772.014s.579-.094.906.691c.336.806,1.141,2.789,1.242,2.99a.741.741,0,0,1,.034.705,2.749,2.749,0,0,1-.4.672c-.2.235-.423.525-.6.705-.2.2-.412.419-.177.822a12.131,12.131,0,0,0,2.24,2.79,11,11,0,0,0,3.238,2c.4.2.637.168.872-.1s1.007-1.176,1.275-1.579.537-.336.906-.2,2.349,1.109,2.752,1.31.671.3.772.471a3.364,3.364,0,0,1-.235,1.915,4.146,4.146,0,0,1-2.718,1.915,5.516,5.516,0,0,1-2.537-.16,23.126,23.126,0,0,1-2.3-.848C13.149,21.038,10.511,16.971,10.309,16.7Z" transform="translate(-0.602)" fill="#fff" fill-rule="evenodd"/>
  </g>
</svg>
