<svg xmlns="http://www.w3.org/2000/svg" width="258.94" height="88.888" viewBox="0 0 258.94 88.888">
  <g id="Group_9859" data-name="Group 9859" transform="translate(-79.858 -41.444)">
    <path id="Path_1" data-name="Path 1" d="M45.4,42.964a1.324,1.324,0,0,0-.956.374,1.255,1.255,0,0,0-.387.944,1.236,1.236,0,0,0,.025.284c.034.173.1.516.181,1.034a8.066,8.066,0,0,1,.129,1.316A2.561,2.561,0,0,1,43.75,48.8a4.245,4.245,0,0,1-2.26.93,29.326,29.326,0,0,1-4.715.284,30.25,30.25,0,0,1-4.727-.271,3.86,3.86,0,0,1-2.208-.956,2.9,2.9,0,0,1-.633-2.028,7.05,7.05,0,0,1,.181-1.55,1.529,1.529,0,0,0,.027-.335,1.466,1.466,0,0,0-.3-.944,1.038,1.038,0,0,0-.864-.374,1.3,1.3,0,0,0-.956.388,2.485,2.485,0,0,0-.594,1.059,8.261,8.261,0,0,0-.284,2.375,7.11,7.11,0,0,0,.917,3.913,5.2,5.2,0,0,0,3.087,2.029,23.287,23.287,0,0,0,6.1.619,23.571,23.571,0,0,0,6.432-.685,5.626,5.626,0,0,0,3.268-2.17,7.389,7.389,0,0,0,.969-4.068,12.569,12.569,0,0,0-.335-2.714q-.388-1.343-1.447-1.343" transform="translate(53.441 24.046)" fill="#0250a3"/>
    <path id="Path_2" data-name="Path 2" d="M33.467,51.345a1.555,1.555,0,0,0-1.123.465,1.493,1.493,0,0,0-.479,1.11,1.578,1.578,0,0,0,.479,1.137,1.559,1.559,0,0,0,2.26.012,1.587,1.587,0,0,0,.465-1.149,1.493,1.493,0,0,0-.479-1.11,1.555,1.555,0,0,0-1.123-.465" transform="translate(56.49 28.736)" fill="#0250a3"/>
    <path id="Path_3" data-name="Path 3" d="M42.854,37.7a1.393,1.393,0,0,0-1.1.452,1.67,1.67,0,0,0-.4,1.149V55.29a1.67,1.67,0,0,0,.4,1.149,1.393,1.393,0,0,0,1.1.452,1.433,1.433,0,0,0,1.11-.452,1.635,1.635,0,0,0,.413-1.149V39.3a1.635,1.635,0,0,0-.413-1.149,1.433,1.433,0,0,0-1.11-.452" transform="translate(61.802 21.099)" fill="#0250a3"/>
    <path id="Path_4" data-name="Path 4" d="M77.515,43.047a1.3,1.3,0,0,0-.944.362,1.27,1.27,0,0,0-.374.956,1.222,1.222,0,0,0,.027.284,18.752,18.752,0,0,1,.257,2.506,2.893,2.893,0,0,1-.685,2.157,3.328,3.328,0,0,1-2.336.658H55.634a9.118,9.118,0,0,0-1.279-4.883A4.051,4.051,0,0,0,50.726,43.2a4.662,4.662,0,0,0-2.739.813,5.173,5.173,0,0,0-1.77,2.171A7.3,7.3,0,0,0,45.61,49.2,4.7,4.7,0,0,0,46.683,52.5a4.269,4.269,0,0,0,3.292,1.162h3.282a3.442,3.442,0,0,1-1.641,2.145,6.237,6.237,0,0,1-3.112.7,10.228,10.228,0,0,1-2.2-.309,2.1,2.1,0,0,0-.388-.053,1.4,1.4,0,0,0-1.047.44,1.7,1.7,0,0,0-.452,1.164,1.915,1.915,0,0,0,1.318,2.014,7.536,7.536,0,0,0,2.92.491,6.1,6.1,0,0,0,4.429-1.692A8.533,8.533,0,0,0,55.4,53.9H73.459a5.245,5.245,0,0,0,4.249-1.8,7.446,7.446,0,0,0,1.511-4.946,14.472,14.472,0,0,0-.206-2.609q-.337-1.5-1.5-1.5M53.309,50.1h-2.92a4.772,4.772,0,0,1-1.95-.271.994.994,0,0,1-.53-.969,1.844,1.844,0,0,1,.711-1.472,2.863,2.863,0,0,1,1.9-.594,2.448,2.448,0,0,1,2.118.917,3.344,3.344,0,0,1,.672,2.028Z" transform="translate(63.514 24.092)" fill="#0250a3"/>
    <path id="Path_5" data-name="Path 5" d="M64.854,51.428a1.558,1.558,0,0,0-1.125.465A1.5,1.5,0,0,0,63.252,53a1.583,1.583,0,0,0,.477,1.137,1.561,1.561,0,0,0,2.262.012A1.587,1.587,0,0,0,66.456,53a1.493,1.493,0,0,0-.479-1.11,1.555,1.555,0,0,0-1.123-.465" transform="translate(74.057 28.783)" fill="#0250a3"/>
    <path id="Path_6" data-name="Path 6" d="M69.645,40.734q2.508-.154,3.695-.362a.832.832,0,0,0,.8-.93.8.8,0,0,0-.271-.646,1.177,1.177,0,0,0-.839-.207,12.208,12.208,0,0,1-1.5.1,1.636,1.636,0,0,1-.827-.14.636.636,0,0,1-.206-.557.551.551,0,0,1,.309-.555,2.252,2.252,0,0,1,.9-.142,4.507,4.507,0,0,1,.853.076.753.753,0,0,0,.646-.167.9.9,0,0,0,.232-.685.942.942,0,0,0-.594-.852,2.515,2.515,0,0,0-1.188-.259,2.68,2.68,0,0,0-1.809.646A2.23,2.23,0,0,0,69.1,37.84a1.32,1.32,0,0,0,.466,1.11h-.078a1.091,1.091,0,0,0-.711.257.818.818,0,0,0-.245.621.961.961,0,0,0,.3.685,1.1,1.1,0,0,0,.814.22" transform="translate(77.013 19.819)" fill="#0250a3"/>
    <path id="Path_7" data-name="Path 7" d="M88.551,37.7a1.349,1.349,0,0,0-1.11.477,2.01,2.01,0,0,0-.387,1.305V50.743a3.256,3.256,0,0,1-.232,1.382,1.282,1.282,0,0,1-.814.66,6.059,6.059,0,0,1-1.692.179l-.012,0-.012,0a4.242,4.242,0,0,1-1.68-.257,1.5,1.5,0,0,1-.8-.9,5.938,5.938,0,0,1-.232-1.911V39.3a1.642,1.642,0,0,0-.413-1.149,1.437,1.437,0,0,0-1.112-.452,1.407,1.407,0,0,0-1.086.452,1.641,1.641,0,0,0-.412,1.149V49.633A2.267,2.267,0,0,1,77.87,51.3a4.779,4.779,0,0,1-2.21,1.073,23.077,23.077,0,0,0-.607-5.3,22.957,22.957,0,0,0-2-4.908,1.933,1.933,0,0,0-.646-.71,1.478,1.478,0,0,0-.8-.245,1.324,1.324,0,0,0-.774.231,1.361,1.361,0,0,0-.672,1.242,2.066,2.066,0,0,0,.285,1.057,20.069,20.069,0,0,1,1.975,4.766,20.7,20.7,0,0,1,.633,4.3,30.013,30.013,0,0,1-3.255.154,1.993,1.993,0,0,0-1.472.569,1.923,1.923,0,0,0-.568,1.421,1.739,1.739,0,0,0,.646,1.394,2.518,2.518,0,0,0,1.678.543,18.468,18.468,0,0,0,6.109-.878,4.487,4.487,0,0,0,2.776-2.352A4.334,4.334,0,0,0,80.788,56.1a6.666,6.666,0,0,0,3.5.788l.012,0,.012,0a6.975,6.975,0,0,0,3.268-.711,4.154,4.154,0,0,0,1.861-2.221,11.485,11.485,0,0,0,.607-4.121V39.481a2.01,2.01,0,0,0-.388-1.305,1.347,1.347,0,0,0-1.111-.477" transform="translate(76.578 21.099)" fill="#0250a3"/>
    <path id="Path_8" data-name="Path 8" d="M120.219,44.463a1.346,1.346,0,0,0-1.008.4,1.381,1.381,0,0,0-.387,1,2.2,2.2,0,0,0,.051.388q.026.154.168.8a5.544,5.544,0,0,1,.142,1.162,1.888,1.888,0,0,1-.427,1.4,2.07,2.07,0,0,1-1.458.413,2.022,2.022,0,0,1-1.5-.44A2.311,2.311,0,0,1,115.389,48V46.684a1.484,1.484,0,0,0-.4-1.084,1.418,1.418,0,0,0-2,0,1.561,1.561,0,0,0-.388,1.11V48a2.051,2.051,0,0,1-.49,1.575,2.615,2.615,0,0,1-1.731.44,2.511,2.511,0,0,1-1.563-.413,5.04,5.04,0,0,1-1.149-1.577l-.543-1.006a13.9,13.9,0,0,0-1.369-2.159,5.01,5.01,0,0,0-1.769-1.368,6.235,6.235,0,0,0-2.725-.53,6.127,6.127,0,0,0-3.113.827A6.389,6.389,0,0,0,95.86,46a5.53,5.53,0,0,0-.853,2.957,6.438,6.438,0,0,0,.362,2.34,3.189,3.189,0,0,0,1.265,1.51,7.378,7.378,0,0,0,2.584.931q1.6.309,2.286.5a3.2,3.2,0,0,1,.981.413.711.711,0,0,1,.3.607q0,1.057-1.678,1.653a15.939,15.939,0,0,1-5.011.594,12.936,12.936,0,0,1-3.784-.44,3.465,3.465,0,0,1-2-1.446,5.2,5.2,0,0,1-.619-2.739,9.664,9.664,0,0,1,.566-3.126,1.776,1.776,0,0,0,.1-.621,1.211,1.211,0,0,0-.349-.891,1.334,1.334,0,0,0-1.769-.025,2.376,2.376,0,0,0-.594.891,9.164,9.164,0,0,0-.582,1.783,10.292,10.292,0,0,0-.245,2.325q0,4.26,2.17,6.237t6.82,1.976q4.6,0,7-1.781a5.7,5.7,0,0,0,2.4-4.832,4.326,4.326,0,0,0-.839-2.828,4.875,4.875,0,0,0-2.622-1.486q-.671-.18-1.291-.309a15.859,15.859,0,0,1-2.428-.736.954.954,0,0,1-.646-.892,1.157,1.157,0,0,1,.5-.878,3.916,3.916,0,0,1,1.343-.671A5.953,5.953,0,0,1,101,46.762a4.81,4.81,0,0,1,1.926.335,3.325,3.325,0,0,1,1.277.983,11.328,11.328,0,0,1,1.112,1.781l.646,1.162a9.372,9.372,0,0,0,1.071,1.628,3.579,3.579,0,0,0,1.291.956,4.735,4.735,0,0,0,1.9.335q2.711,0,3.512-1.886a2.768,2.768,0,0,0,1.279,1.408,4.7,4.7,0,0,0,2.235.477,4.408,4.408,0,0,0,3.473-1.408,6.092,6.092,0,0,0,1.252-4.171,8.995,8.995,0,0,0-.413-2.764,1.4,1.4,0,0,0-1.343-1.137" transform="translate(87.246 24.046)" fill="#0250a3"/>
    <path id="Path_9" data-name="Path 9" d="M157.9,37.7a1.35,1.35,0,0,0-1.112.477,2.019,2.019,0,0,0-.387,1.305V50.742a3.27,3.27,0,0,1-.232,1.383,1.272,1.272,0,0,1-.814.658,6.041,6.041,0,0,1-1.692.181l-.012,0-.012,0a2.263,2.263,0,0,1-1.446-.413,3.566,3.566,0,0,1-.93-1.291l-.672-1.369a13.527,13.527,0,0,0-1.149-2,5,5,0,0,0-1.5-1.368,4.177,4.177,0,0,0-2.209-.555,4.927,4.927,0,0,0-2.634.749,5.432,5.432,0,0,0-1.951,2.131,6.756,6.756,0,0,0-.736,3.218v.412a1.911,1.911,0,0,1-.93.388,9.619,9.619,0,0,1-1.575.1l-.012,0-.012,0H121.219a9.1,9.1,0,0,0-1.279-4.883,4.049,4.049,0,0,0-3.629-1.884,4.666,4.666,0,0,0-2.739.813A5.182,5.182,0,0,0,111.8,49.18a7.3,7.3,0,0,0-.607,3.009,4.7,4.7,0,0,0,1.071,3.307,4.273,4.273,0,0,0,3.294,1.162h3.28A3.437,3.437,0,0,1,117.2,58.8a6.233,6.233,0,0,1-3.112.7,10.241,10.241,0,0,1-2.2-.309,2.065,2.065,0,0,0-.388-.053,1.4,1.4,0,0,0-1.045.44,1.685,1.685,0,0,0-.452,1.164,1.915,1.915,0,0,0,1.318,2.014,7.528,7.528,0,0,0,2.918.491,6.107,6.107,0,0,0,4.431-1.692,8.532,8.532,0,0,0,2.311-4.663h16.894l.012,0,.012,0a4.142,4.142,0,0,0,2.169-.465,2.513,2.513,0,0,0,1.059-1.368,4.2,4.2,0,0,0,3.952,1.937,5.245,5.245,0,0,0,2.867-.7,3.877,3.877,0,0,0,1.55-1.887,4.731,4.731,0,0,0,1.536,1.834,4.534,4.534,0,0,0,2.6.646l.012,0,.012,0a6.953,6.953,0,0,0,3.268-.71,4.153,4.153,0,0,0,1.861-2.221,11.485,11.485,0,0,0,.607-4.121V39.481a2.01,2.01,0,0,0-.387-1.305,1.349,1.349,0,0,0-1.11-.477m-39,15.4h-2.92a4.771,4.771,0,0,1-1.95-.271.991.991,0,0,1-.53-.969,1.847,1.847,0,0,1,.71-1.472,2.867,2.867,0,0,1,1.9-.594,2.445,2.445,0,0,1,2.116.917,3.345,3.345,0,0,1,.674,2.028Zm26.373,0a4.89,4.89,0,0,1-1.989-.284,1.03,1.03,0,0,1-.569-1.008,1.89,1.89,0,0,1,.8-1.55,2.949,2.949,0,0,1,1.859-.621,2.712,2.712,0,0,1,1.9.647,6.055,6.055,0,0,1,1.33,2.04q-.669.774-3.331.775" transform="translate(100.221 21.099)" fill="#0250a3"/>
    <path id="Path_10" data-name="Path 10" d="M146.434,38.15a1.433,1.433,0,0,0-1.11-.452,1.393,1.393,0,0,0-1.1.452,1.67,1.67,0,0,0-.4,1.149V55.29a1.67,1.67,0,0,0,.4,1.149,1.388,1.388,0,0,0,1.1.452,1.428,1.428,0,0,0,1.11-.452,1.635,1.635,0,0,0,.413-1.149V39.3a1.635,1.635,0,0,0-.413-1.149" transform="translate(119.151 21.099)" fill="#0250a3"/>
    <path id="Path_11" data-name="Path 11" d="M37.575,64.031a4.273,4.273,0,0,0-.916-1.628,2.235,2.235,0,0,0-1.667-.568,2.158,2.158,0,0,0-1.6.568,4.632,4.632,0,0,0-.983,1.68L26.571,79.451a2.081,2.081,0,0,0-.154.775,1.763,1.763,0,0,0,1.756,1.758,1.631,1.631,0,0,0,1.045-.337,1.956,1.956,0,0,0,.633-.93l1.137-3.255h7.337l.981,3.126a1.939,1.939,0,0,0,1.861,1.4A1.941,1.941,0,0,0,43.1,80.046a2.763,2.763,0,0,0-.156-.8ZM32,74.518l2.815-8.112L37.4,74.518Z" transform="translate(53.441 34.607)" fill="#0250a3"/>
    <path id="Path_12" data-name="Path 12" d="M43.781,79.006l-.672.051a.779.779,0,0,1-.749-.5,4.065,4.065,0,0,1-.232-1.588V63.584A1.76,1.76,0,0,0,40.345,61.8a1.685,1.685,0,0,0-1.252.516,1.741,1.741,0,0,0-.5,1.266V77.92a4.294,4.294,0,0,0,.992,3.14,4.141,4.141,0,0,0,3.038.994,4.545,4.545,0,0,0,1.366-.181,1.61,1.61,0,0,0,.906-.529,1.428,1.428,0,0,0,.337-.944,1.347,1.347,0,0,0-.4-1.008,1.452,1.452,0,0,0-1.048-.387" transform="translate(60.254 34.588)" fill="#0250a3"/>
    <path id="Path_13" data-name="Path 13" d="M60.312,61.8a2.176,2.176,0,0,0-2.092,1.318l-4.986,9.712-4.96-9.712a2.4,2.4,0,0,0-.853-1,2.347,2.347,0,0,0-1.266-.323,1.79,1.79,0,0,0-1.4.543,1.864,1.864,0,0,0-.488,1.291V80.143a1.884,1.884,0,0,0,.465,1.316,1.584,1.584,0,0,0,1.238.518,1.663,1.663,0,0,0,1.254-.53,1.824,1.824,0,0,0,.5-1.3V74.253l-.051-5.4,3.411,6.586a3.66,3.66,0,0,0,.838,1.266,1.848,1.848,0,0,0,1.226.362,1.823,1.823,0,0,0,1.229-.388,4.314,4.314,0,0,0,.916-1.291l3.462-6.742-.025,5.632v5.864a1.9,1.9,0,0,0,.463,1.316,1.589,1.589,0,0,0,1.242.518,1.662,1.662,0,0,0,1.252-.53,1.816,1.816,0,0,0,.5-1.3V63.635a1.837,1.837,0,0,0-.5-1.277,1.77,1.77,0,0,0-1.382-.557" transform="translate(63.434 34.588)" fill="#0250a3"/>
    <path id="Path_14" data-name="Path 14" d="M67.912,66.032a8.3,8.3,0,0,0-6.833,0,5.524,5.524,0,0,0-2.363,2.208,7.025,7.025,0,0,0-.866,3.617v1.7a6.971,6.971,0,0,0,.866,3.59,5.537,5.537,0,0,0,2.363,2.21,8.312,8.312,0,0,0,6.833,0,5.592,5.592,0,0,0,2.389-2.21,6.9,6.9,0,0,0,.878-3.59v-1.7a6.95,6.95,0,0,0-.878-3.617,5.579,5.579,0,0,0-2.389-2.208m-.374,7.53a4.228,4.228,0,0,1-.8,2.8,2.785,2.785,0,0,1-2.246.942,2.749,2.749,0,0,1-2.235-.942,4.281,4.281,0,0,1-.789-2.8V71.831a4.23,4.23,0,0,1,.789-2.79,2.77,2.77,0,0,1,2.235-.93,2.805,2.805,0,0,1,2.246.93,4.178,4.178,0,0,1,.8,2.79Z" transform="translate(71.034 36.544)" fill="#0250a3"/>
    <path id="Path_15" data-name="Path 15" d="M78,66.032a8.3,8.3,0,0,0-6.833,0A5.524,5.524,0,0,0,68.8,68.241a7.025,7.025,0,0,0-.866,3.617v1.7a6.971,6.971,0,0,0,.866,3.59,5.537,5.537,0,0,0,2.363,2.21,8.312,8.312,0,0,0,6.833,0,5.592,5.592,0,0,0,2.389-2.21,6.9,6.9,0,0,0,.88-3.59v-1.7a6.95,6.95,0,0,0-.88-3.617A5.579,5.579,0,0,0,78,66.032m-.374,7.53a4.237,4.237,0,0,1-.8,2.8,2.79,2.79,0,0,1-2.247.942,2.749,2.749,0,0,1-2.235-.942,4.281,4.281,0,0,1-.788-2.8V71.831a4.23,4.23,0,0,1,.788-2.79,2.77,2.77,0,0,1,2.235-.93,2.811,2.811,0,0,1,2.247.93,4.186,4.186,0,0,1,.8,2.79Z" transform="translate(76.679 36.544)" fill="#0250a3"/>
    <path id="Path_16" data-name="Path 16" d="M85.346,71.237l-1.731-.154a4.816,4.816,0,0,1-1.731-.4,1.078,1.078,0,0,1-.568-1.047,1.286,1.286,0,0,1,.71-1.162,4.077,4.077,0,0,1,2.029-.413,5.927,5.927,0,0,1,1.1.09q.475.091,1.3.3c.207.069.533.156.981.259a2.178,2.178,0,0,0,.388.025,1.528,1.528,0,0,0,1.02-.335,1.119,1.119,0,0,0,.4-.9,1.46,1.46,0,0,0-.878-1.394,6.589,6.589,0,0,0-1.95-.58,14.991,14.991,0,0,0-2.544-.221,7.414,7.414,0,0,0-4.147,1.125,3.86,3.86,0,0,0-1.717,3.475,3.468,3.468,0,0,0,1.2,2.906A5.782,5.782,0,0,0,82.3,73.923l1.809.207a4.252,4.252,0,0,1,1.666.4,1.16,1.16,0,0,1,.607,1.123,1.343,1.343,0,0,1-.749,1.227,3.839,3.839,0,0,1-1.912.426,6.862,6.862,0,0,1-1.277-.115q-.608-.117-1.694-.4l-1.187-.284a1.228,1.228,0,0,0-.285-.027,1.307,1.307,0,0,0-.942.362,1.178,1.178,0,0,0-.374.878,1.578,1.578,0,0,0,.724,1.343,5.757,5.757,0,0,0,2,.724,13.45,13.45,0,0,0,2.778.284,8.161,8.161,0,0,0,4.4-1.149,3.985,3.985,0,0,0,1.847-3.654q0-3.643-4.366-4.03" transform="translate(82.287 36.544)" fill="#0250a3"/>
    <path id="Path_17" data-name="Path 17" d="M92.941,65.3a9.556,9.556,0,0,0-2.84.4,7.61,7.61,0,0,0-2.223,1.071,1.563,1.563,0,0,0-.724,1.318,1.356,1.356,0,0,0,.413,1.034,1.494,1.494,0,0,0,1.059.387,1.867,1.867,0,0,0,.8-.232,5.168,5.168,0,0,1,2.842-.827,4.377,4.377,0,0,1,1.964.349,1.9,1.9,0,0,1,.93,1.008,5.184,5.184,0,0,1,.284,1.744H92.581a7.287,7.287,0,0,0-4.392,1.071,3.95,3.95,0,0,0-1.421,3.37,3.845,3.845,0,0,0,1.213,3.023A5.068,5.068,0,0,0,91.47,80.1a4.427,4.427,0,0,0,3.977-1.911v.154A1.763,1.763,0,0,0,97.2,80.1a1.745,1.745,0,0,0,1.266-.5,1.68,1.68,0,0,0,.516-1.254v-7.31a5.839,5.839,0,0,0-1.421-4.366Q96.146,65.3,92.941,65.3m2.506,9.221a2.853,2.853,0,0,1-.93,2.286,3.417,3.417,0,0,1-2.17.685q-2.145,0-2.145-1.68a1.651,1.651,0,0,1,.607-1.485,4.378,4.378,0,0,1,2.233-.4h2.4Z" transform="translate(87.218 36.544)" fill="#0250a3"/>
    <path id="Path_18" data-name="Path 18" d="M107.127,62.033h-4.96a1.749,1.749,0,0,0-1.3.543,1.78,1.78,0,0,0-.53,1.291V79.7a1.782,1.782,0,0,0,.53,1.291,1.749,1.749,0,0,0,1.3.543h4.96a8.107,8.107,0,0,0,5.916-2.118q2.169-2.117,2.17-6.356V70.686q0-4.26-2.182-6.457a7.949,7.949,0,0,0-5.9-2.2m4.392,11.211a5.6,5.6,0,0,1-1.1,3.9,4.321,4.321,0,0,1-3.294,1.162H104V65.237h3.126a4.025,4.025,0,0,1,3.255,1.343,5.931,5.931,0,0,1,1.137,3.927Z" transform="translate(94.81 34.718)" fill="#0250a3"/>
    <path id="Path_19" data-name="Path 19" d="M121.589,66.032a8.3,8.3,0,0,0-6.833,0,5.524,5.524,0,0,0-2.363,2.208,7.025,7.025,0,0,0-.866,3.617v1.7a6.971,6.971,0,0,0,.866,3.59,5.537,5.537,0,0,0,2.363,2.21,8.312,8.312,0,0,0,6.833,0,5.592,5.592,0,0,0,2.389-2.21,6.883,6.883,0,0,0,.878-3.59v-1.7a6.935,6.935,0,0,0-.878-3.617,5.579,5.579,0,0,0-2.389-2.208m-.374,7.53a4.228,4.228,0,0,1-.8,2.8,2.784,2.784,0,0,1-2.246.942,2.749,2.749,0,0,1-2.235-.942,4.281,4.281,0,0,1-.788-2.8V71.831a4.23,4.23,0,0,1,.788-2.79,2.77,2.77,0,0,1,2.235-.93,2.805,2.805,0,0,1,2.246.93,4.177,4.177,0,0,1,.8,2.79Z" transform="translate(101.075 36.544)" fill="#0250a3"/>
    <path id="Path_20" data-name="Path 20" d="M131.676,66.032a8.3,8.3,0,0,0-6.833,0,5.524,5.524,0,0,0-2.363,2.208,7.025,7.025,0,0,0-.866,3.617v1.7a6.971,6.971,0,0,0,.866,3.59,5.537,5.537,0,0,0,2.363,2.21,8.312,8.312,0,0,0,6.833,0,5.592,5.592,0,0,0,2.389-2.21,6.9,6.9,0,0,0,.878-3.59v-1.7a6.95,6.95,0,0,0-.878-3.617,5.579,5.579,0,0,0-2.389-2.208m-.374,7.53a4.237,4.237,0,0,1-.8,2.8,2.79,2.79,0,0,1-2.247.942,2.749,2.749,0,0,1-2.235-.942,4.281,4.281,0,0,1-.788-2.8V71.831a4.229,4.229,0,0,1,.788-2.79,2.77,2.77,0,0,1,2.235-.93,2.811,2.811,0,0,1,2.247.93,4.186,4.186,0,0,1,.8,2.79Z" transform="translate(106.721 36.544)" fill="#0250a3"/>
    <path id="Path_21" data-name="Path 21" d="M138.982,65.347a3,3,0,0,0-1.873.7,5.957,5.957,0,0,0-1.536,1.886v-.853A1.763,1.763,0,0,0,133.79,65.3a1.691,1.691,0,0,0-1.24.516,1.723,1.723,0,0,0-.518,1.265V78.341A1.765,1.765,0,0,0,133.79,80.1a1.749,1.749,0,0,0,1.266-.5,1.682,1.682,0,0,0,.516-1.252V73.252a5.309,5.309,0,0,1,.942-3.19,2.855,2.855,0,0,1,2.313-1.254,2.082,2.082,0,0,0,1.213-.374,1.652,1.652,0,0,0,.465-1.382q0-1.7-1.524-1.7" transform="translate(112.551 36.544)" fill="#0250a3"/>
    <path id="Path_22" data-name="Path 22" d="M145.615,71.237l-1.73-.154a4.808,4.808,0,0,1-1.731-.4,1.077,1.077,0,0,1-.569-1.047,1.283,1.283,0,0,1,.71-1.162,4.07,4.07,0,0,1,2.028-.413,5.932,5.932,0,0,1,1.1.09c.318.061.752.159,1.3.3.207.069.533.156.981.259a2.17,2.17,0,0,0,.387.025,1.535,1.535,0,0,0,1.022-.335,1.115,1.115,0,0,0,.4-.9,1.462,1.462,0,0,0-.878-1.394,6.619,6.619,0,0,0-1.95-.58,15.009,15.009,0,0,0-2.545-.221A7.417,7.417,0,0,0,140,66.42a3.863,3.863,0,0,0-1.717,3.475,3.467,3.467,0,0,0,1.2,2.906,5.792,5.792,0,0,0,3.09,1.123l1.808.207a4.261,4.261,0,0,1,1.667.4,1.162,1.162,0,0,1,.605,1.123,1.34,1.34,0,0,1-.749,1.227,3.833,3.833,0,0,1-1.911.426,6.908,6.908,0,0,1-1.281-.115q-.6-.117-1.691-.4l-1.19-.284a1.207,1.207,0,0,0-.282-.027,1.311,1.311,0,0,0-.944.362,1.177,1.177,0,0,0-.373.878,1.58,1.58,0,0,0,.722,1.343,5.755,5.755,0,0,0,2,.724,13.424,13.424,0,0,0,2.776.284,8.158,8.158,0,0,0,4.4-1.149,3.984,3.984,0,0,0,1.845-3.654q0-3.643-4.364-4.03" transform="translate(116.019 36.544)" fill="#0250a3"/>
    <path id="Path_23" data-name="Path 23" d="M204.674,36.014l-34.232-9.35a2.546,2.546,0,0,0-3.218,2.458v15.76l16.444-4.492a2.549,2.549,0,0,1,3.219,2.46v54.3l17.787-4.858a2.547,2.547,0,0,0,1.876-2.458V38.472a2.546,2.546,0,0,0-1.876-2.458" transform="translate(132.248 14.872)" fill="#0250a3"/>
    <path id="Path_24" data-name="Path 24" d="M174.281,92.612v-54.3l-17.786,4.86a2.547,2.547,0,0,0-1.878,2.458V96.988a2.549,2.549,0,0,0,1.878,2.46l34.23,9.35a2.548,2.548,0,0,0,3.221-2.458V90.578L177.5,95.07a2.548,2.548,0,0,1-3.219-2.458" transform="translate(125.191 21.442)" fill="#75c9b5"/>
    <path id="Path_25" data-name="Path 25" d="M183.669,35.466l-16.444,4.492v54.3a2.548,2.548,0,0,0,3.219,2.458l16.445-4.492v-54.3a2.55,2.55,0,0,0-3.221-2.458" transform="translate(132.248 19.798)" fill="#0392af"/>
  </g>
</svg>
