<svg xmlns="http://www.w3.org/2000/svg" width="81" height="83.296" viewBox="0 0 81 83.296">
  <g id="Group_34070" data-name="Group 34070" transform="translate(-0.864 0.008)">
    <path id="Path_500" data-name="Path 500" d="M73.3,56.657l-1.77.234A6.025,6.025,0,0,0,66.4,63.958l.39,1.718a6.012,6.012,0,0,1-8.771,6.39l-1.874-1.015A6,6,0,0,0,48,73.445l-2.03,3.5a6,6,0,0,1-10.528,0l-1.861-3.5a6,6,0,0,0-8.147-2.395l-1.874,1.015a6.012,6.012,0,0,1-8.823-6.39l.325-1.757a6.025,6.025,0,0,0-5.127-7.066l-1.7-.2A6.025,6.025,0,0,1,4.87,46.246l1.3-1.223a6.038,6.038,0,0,0,0-8.745l-1.3-1.223A6.025,6.025,0,0,1,8.214,24.643l1.77-.221a6.025,6.025,0,0,0,5.127-7.066l-.377-1.679a6.012,6.012,0,0,1,8.823-6.39l2.069,1.132a6,6,0,0,0,8.029-2.212l1.9-3.266a6,6,0,0,1,10.32,0l1.939,3.266a6,6,0,0,0,8.029,2.212l2.069-1.132a6.012,6.012,0,0,1,8.875,6.39l-.325,1.77a6.025,6.025,0,0,0,5.127,7.066l1.77.221a6.025,6.025,0,0,1,3.345,10.411l-1.3,1.223a6.038,6.038,0,0,0,0,8.745l1.3,1.223a6.025,6.025,0,0,1-3.41,10.32Z" transform="translate(0.622 0.606)" fill="#75c9b5"/>
    <path id="Path_501" data-name="Path 501" d="M33.823,78.8,31.91,75.3A3.4,3.4,0,0,0,27.3,74l-1.874,1.028a8.615,8.615,0,0,1-12.584-9.11c.325-1.757.768-2.98-.273-4.412S10.255,60.2,8.5,59.9A8.628,8.628,0,0,1,3.644,44.991C4.945,43.768,6,43.039,6,41.282S4.945,38.8,3.644,37.573A8.628,8.628,0,0,1,8.5,22.763c1.757-.234,3.045-.182,4.073-1.6s.6-2.6.273-4.412a8.615,8.615,0,0,1,12.584-9.11L27.5,8.774a3.384,3.384,0,0,0,4.542-1.3l1.939-3.266a8.6,8.6,0,0,1,14.8,0l1.939,3.266a3.384,3.384,0,0,0,4.542,1.3l2.069-1.132a8.615,8.615,0,0,1,12.584,9.11c-.325,1.757-.768,2.993.273,4.412s2.3,1.3,4.073,1.6a8.628,8.628,0,0,1,4.867,14.81c-1.3,1.223-2.355,1.952-2.355,3.709s1.054,2.486,2.355,3.709a8.628,8.628,0,0,1-4.867,14.875c.13,0-1.64.221-1.77.234a3.4,3.4,0,0,0-2.9,4.008l.325,1.77a8.615,8.615,0,0,1-12.584,9.11L55.452,73.96a3.4,3.4,0,0,0-4.607,1.3L48.932,78.8a8.6,8.6,0,0,1-15.109,0ZM28.916,68.39a8.6,8.6,0,0,1,7.561,4.477l1.913,3.5a3.4,3.4,0,0,0,5.973,0l1.913-3.5a8.615,8.615,0,0,1,11.712-3.436c1.887,1.028,3.488,2.251,5.492.794s1.3-3.423,1.028-5.206a8.628,8.628,0,0,1,7.353-10.125c1.978-.26,3.813-.26,4.555-2.6s-.976-3.618-2.186-4.776A8.628,8.628,0,0,1,74.23,35c1.445-1.366,2.941-2.473,2.186-4.763s-2.824-2.342-4.555-2.6a8.628,8.628,0,0,1-7.353-10.125c.364-1.926.937-3.735-1.028-5.206s-3.67-.2-5.674.9a8.589,8.589,0,0,1-11.569-3.045L44.3,6.887a3.4,3.4,0,0,0-5.843,0l-1.939,3.266A8.576,8.576,0,0,1,25,13.3c-2-1.093-3.631-2.382-5.687-.9s-1.3,3.436-1.015,5.206a8.628,8.628,0,0,1-7.353,10.125c-1.913.247-3.813.26-4.555,2.6s.976,3.5,2.186,4.685a8.628,8.628,0,0,1,0,12.519c-1.445,1.379-2.941,2.473-2.186,4.776s2.824,2.329,4.555,2.6A8.628,8.628,0,0,1,18.3,65.045c-.364,1.926-.95,3.735,1.015,5.206,3.149,2.186,4.685-1.926,9.6-1.926ZM73.918,57.263Z" transform="translate(0)" fill="#fff"/>
    <path id="Path_502" data-name="Path 502" d="M22.6,51.2a2.6,2.6,0,0,1-1.835-4.438L46.793,20.735a2.6,2.6,0,0,1,3.67,3.67C22.21,52.671,24.136,51.2,22.6,51.2Z" transform="translate(5.77 6.063)" fill="#fff"/>
    <circle id="Ellipse_30" data-name="Ellipse 30" cx="6.507" cy="6.507" r="6.507" transform="translate(45.288 45.551)" fill="#75c9b5"/>
    <path id="Path_503" data-name="Path 503" d="M42.11,51.219a9.11,9.11,0,1,1,9.11-9.11A9.11,9.11,0,0,1,42.11,51.219Zm0-13.014a3.9,3.9,0,1,0,3.9,3.9A3.9,3.9,0,0,0,42.11,38.206Z" transform="translate(9.685 9.948)" fill="#fff"/>
    <circle id="Ellipse_31" data-name="Ellipse 31" cx="6.507" cy="6.507" r="6.507" transform="translate(24.466 24.728)" fill="#75c9b5"/>
    <path id="Path_504" data-name="Path 504" d="M26.11,35.219a9.11,9.11,0,1,1,9.11-9.11,9.11,9.11,0,0,1-9.11,9.11Zm0-13.014a3.9,3.9,0,1,0,3.9,3.9A3.9,3.9,0,0,0,26.11,22.206Z" transform="translate(4.863 5.126)" fill="#fff"/>
  </g>
</svg>
