
<svg xmlns="http://www.w3.org/2000/svg" width="13.327" height="21.323" viewBox="0 0 13.327 21.323">
  <path id="attach_file_24dp_5F6368_FILL0_wght400_GRAD0_opsz24" d="M233.327-865.34a6.425,6.425,0,0,1-1.946,4.718,6.424,6.424,0,0,1-4.718,1.946,6.424,6.424,0,0,1-4.718-1.946A6.425,6.425,0,0,1,220-865.34V-875.2a4.627,4.627,0,0,1,1.4-3.4,4.627,4.627,0,0,1,3.4-1.4,4.627,4.627,0,0,1,3.4,1.4,4.627,4.627,0,0,1,1.4,3.4v9.329a2.829,2.829,0,0,1-.853,2.079,2.829,2.829,0,0,1-2.079.853,2.829,2.829,0,0,1-2.079-.853,2.829,2.829,0,0,1-.853-2.079v-9.862h2.132v9.862a.777.777,0,0,0,.227.573.777.777,0,0,0,.573.227.777.777,0,0,0,.573-.227.776.776,0,0,0,.227-.573V-875.2a2.694,2.694,0,0,0-.786-1.892,2.53,2.53,0,0,0-1.879-.773,2.574,2.574,0,0,0-1.892.773,2.574,2.574,0,0,0-.773,1.892v9.862a4.259,4.259,0,0,0,1.306,3.212,4.415,4.415,0,0,0,3.225,1.319,4.3,4.3,0,0,0,3.172-1.319,4.589,4.589,0,0,0,1.359-3.212v-10.4h2.132Z" transform="translate(-220 880)" fill="#0250a3"/>
</svg>
