<svg xmlns="http://www.w3.org/2000/svg" width="17.59" height="10.554" viewBox="0 0 17.59 10.554">
  <path id="Path_2750" data-name="Path 2750" d="M7.981,13.036l4.063-4.063a1.667,1.667,0,0,0,.51-1.214A1.779,1.779,0,0,0,10.795,6a1.659,1.659,0,0,0-1.214.51l-7,7A1.686,1.686,0,0,0,2,14.795a1.6,1.6,0,0,0,.568,1.273L9.581,23.08a1.659,1.659,0,0,0,1.214.51,1.779,1.779,0,0,0,1.759-1.759,1.667,1.667,0,0,0-.51-1.214L7.981,16.554,6.222,14.795Z" transform="translate(-6 12.554) rotate(-90)" fill="#0250a3"/>
</svg>
