<svg xmlns="http://www.w3.org/2000/svg" width="559.172" height="842.591" viewBox="0 0 559.172 842.591">
  <g id="Group_9881" data-name="Group 9881" transform="translate(-940 -855.746)" opacity="0.5">
    <path id="Path_485" data-name="Path 485" d="M522.215,116.077,197.725,27.445a24.131,24.131,0,0,0-30.5,23.3v149.4L323.1,157.563a24.165,24.165,0,0,1,30.515,23.315V695.583l168.6-46.054A24.147,24.147,0,0,0,540,626.23V139.378a24.134,24.134,0,0,0-17.786-23.3" transform="translate(959.172 829.174)" fill="#0250a3"/>
    <path id="Path_486" data-name="Path 486" d="M341.019,553.033V38.312L172.417,84.38a24.147,24.147,0,0,0-17.8,23.3V594.518a24.165,24.165,0,0,0,17.8,23.315l324.475,88.633a24.156,24.156,0,0,0,30.53-23.3V533.754L371.535,576.333a24.15,24.15,0,0,1-30.515-23.3" transform="translate(785.383 991.004)" fill="#75c9b5"/>
    <path id="Path_487" data-name="Path 487" d="M323.1,36.242,167.225,78.821V593.541a24.157,24.157,0,0,0,30.515,23.3l155.887-42.579V59.542a24.168,24.168,0,0,0-30.53-23.3" transform="translate(959.172 950.509)" fill="#0392af"/>
  </g>
</svg>
