<svg xmlns="http://www.w3.org/2000/svg" width="54.803" height="68.503" viewBox="0 0 54.803 68.503">
  <path id="location_on_24dp_5F6368_FILL0_wght400_GRAD0_opsz24" d="M187.4-845.748a6.6,6.6,0,0,0,4.838-2.012,6.6,6.6,0,0,0,2.012-4.838,6.6,6.6,0,0,0-2.012-4.838,6.6,6.6,0,0,0-4.838-2.012,6.6,6.6,0,0,0-4.838,2.012,6.6,6.6,0,0,0-2.012,4.838,6.6,6.6,0,0,0,2.012,4.838A6.6,6.6,0,0,0,187.4-845.748Zm0,25.175q10.447-9.591,15.5-17.426t5.052-13.915q0-9.334-5.951-15.285a19.851,19.851,0,0,0-14.6-5.951,19.851,19.851,0,0,0-14.6,5.951q-5.951,5.951-5.951,15.285,0,6.08,5.052,13.915T187.4-820.573Zm0,9.077q-13.786-11.731-20.594-21.793T160-851.914q0-12.844,8.263-20.465A27.372,27.372,0,0,1,187.4-880a27.372,27.372,0,0,1,19.138,7.621q8.263,7.621,8.263,20.465,0,8.563-6.808,18.624T187.4-811.5ZM187.4-852.6Z" transform="translate(-160 880)" fill="#003da5"/>
</svg>
