<svg xmlns="http://www.w3.org/2000/svg" width="27.404" height="27.34" viewBox="0 0 27.404 27.34">
  <g id="Group_3" data-name="Group 3" transform="translate(0 0)">
    <path id="Path_2" data-name="Path 2" d="M181.687,143.877h5.686v18.264h-5.686Zm2.844-9.076a3.292,3.292,0,1,1-3.3,3.289,3.291,3.291,0,0,1,3.3-3.289" transform="translate(-181.235 -134.801)" fill="#fff"/>
    <path id="Path_3" data-name="Path 3" d="M187.762,141.056h5.447v2.5h.074a5.968,5.968,0,0,1,5.375-2.95c5.748,0,6.808,3.781,6.808,8.7V159.32h-5.673v-8.879c0-2.119-.042-4.843-2.951-4.843-2.954,0-3.4,2.306-3.4,4.689v9.034h-5.676Z" transform="translate(-178.062 -131.98)" fill="#fff"/>
  </g>
</svg>
