<svg xmlns="http://www.w3.org/2000/svg" width="42.948" height="35.875" viewBox="0 0 42.948 35.875">
  <g id="Icons_Contact_ic-contact-phone-2" data-name="Icons / Contact / ic-contact-phone-2" transform="translate(1.251 1.269)">
    <g id="ic-contact-phone-2">
      <path id="Subtraction_1" data-name="Subtraction 1" d="M-1060.316-4615.121h-20.877a4.082,4.082,0,0,1-3.361-1.764,4.084,4.084,0,0,1-.457-3.768l3.941-10.494a4.1,4.1,0,0,1,3.8-2.675h13.019a4.1,4.1,0,0,1,3.825,2.654l3.92,10.494a4.081,4.081,0,0,1-.445,3.783A4.078,4.078,0,0,1-1060.316-4615.121Zm-10.444-13.414a4.088,4.088,0,0,0-4.083,4.083,4.088,4.088,0,0,0,4.083,4.083,4.089,4.089,0,0,0,4.084-4.083A4.088,4.088,0,0,0-1070.761-4628.534Z" transform="translate(1091.239 4648.476)" fill="#003da5" stroke="#003da5" stroke-linecap="round" stroke-linejoin="round" stroke-width="2.5"/>
      <path id="Path_85" data-name="Path 85" d="M2.08,7.717v4.859a4.083,4.083,0,0,0,4.083,4.083H8.042a4.083,4.083,0,0,0,4.083-4.083V9.983h0a52.348,52.348,0,0,1,20.417,0h0v2.593a4.083,4.083,0,0,0,4.083,4.083h1.817a4.083,4.083,0,0,0,4.083-4.083V7.717a2.042,2.042,0,0,0-1.654-2.042h0a94.284,94.284,0,0,0-37.2,0h0A2.042,2.042,0,0,0,2.08,7.717Z" transform="translate(-2.08 -3.823)" fill="#003da5" stroke="#003da5" stroke-linecap="round" stroke-linejoin="round" stroke-width="2.5"/>
    </g>
  </g>
</svg>
